<svg width="32" height="32" viewBox="0 0 32 32" fill="none" xmlns="http://www.w3.org/2000/svg">
<path fill-rule="evenodd" clip-rule="evenodd" d="M16 1.66669C16.2652 1.66669 16.5196 1.77204 16.7071 1.95958C16.8947 2.14712 17 2.40147 17 2.66669V17.2974L19.24 14.6827C19.3255 14.5829 19.4297 14.5009 19.5469 14.4414C19.664 14.3819 19.7917 14.346 19.9227 14.3359C20.0537 14.3257 20.1854 14.3415 20.3103 14.3822C20.4352 14.423 20.5509 14.4879 20.6507 14.5734C20.7505 14.6588 20.8325 14.7631 20.892 14.8802C20.9515 14.9973 20.9874 15.1251 20.9975 15.256C21.0077 15.387 20.9919 15.5187 20.9512 15.6437C20.9104 15.7686 20.8455 15.8842 20.76 15.984L16.76 20.6507C16.6661 20.7605 16.5496 20.8486 16.4184 20.909C16.2872 20.9695 16.1445 21.0008 16 21.0008C15.8556 21.0008 15.7128 20.9695 15.5816 20.909C15.4504 20.8486 15.3339 20.7605 15.24 20.6507L11.24 15.984C11.1546 15.8842 11.0896 15.7686 11.0489 15.6437C11.0081 15.5187 10.9924 15.387 11.0025 15.256C11.0127 15.1251 11.0485 14.9973 11.108 14.8802C11.1676 14.7631 11.2495 14.6588 11.3494 14.5734C11.4492 14.4879 11.5648 14.423 11.6897 14.3822C11.8146 14.3415 11.9463 14.3257 12.0773 14.3359C12.2083 14.346 12.336 14.3819 12.4532 14.4414C12.5703 14.5009 12.6746 14.5829 12.76 14.6827L15 17.296V2.66669C15 2.40147 15.1054 2.14712 15.2929 1.95958C15.4804 1.77204 15.7348 1.66669 16 1.66669ZM9.32802 11.0027C9.59324 11.0013 9.84815 11.1053 10.0367 11.2918C10.2252 11.4783 10.3319 11.7321 10.3334 11.9974C10.3348 12.2626 10.2308 12.5175 10.0442 12.706C9.85769 12.8946 9.6039 13.0013 9.33869 13.0027C7.88135 13.0107 6.84802 13.048 6.06269 13.192C5.30802 13.332 4.86935 13.5547 4.54535 13.8787C4.17602 14.248 3.93602 14.7667 3.80402 15.7454C3.66935 16.752 3.66669 18.0867 3.66669 20V21.3334C3.66669 23.248 3.66935 24.5827 3.80402 25.5894C3.93602 26.568 4.17735 27.0854 4.54535 27.456C4.91469 27.824 5.43202 28.064 6.41202 28.196C7.41735 28.332 8.75335 28.3334 10.6667 28.3334H21.3334C23.2467 28.3334 24.5814 28.332 25.5894 28.196C26.568 28.064 27.0854 27.824 27.4547 27.4547C27.824 27.0854 28.064 26.568 28.196 25.5894C28.3307 24.5827 28.3334 23.248 28.3334 21.3334V20C28.3334 18.0867 28.3307 16.752 28.196 15.744C28.064 14.7667 27.8227 14.248 27.4547 13.8787C27.1294 13.5547 26.692 13.332 25.9374 13.192C25.152 13.048 24.1187 13.0107 22.6614 13.0027C22.53 13.002 22.4001 12.9754 22.2791 12.9245C22.158 12.8736 22.0482 12.7994 21.9558 12.706C21.8634 12.6127 21.7904 12.502 21.7408 12.3804C21.6912 12.2588 21.666 12.1287 21.6667 11.9974C21.6674 11.866 21.6939 11.7361 21.7448 11.6151C21.7957 11.494 21.87 11.3842 21.9634 11.2918C22.0567 11.1994 22.1673 11.1264 22.2889 11.0768C22.4105 11.0272 22.5407 11.002 22.672 11.0027C24.1147 11.0107 25.316 11.0454 26.2987 11.2254C27.3094 11.412 28.1694 11.7654 28.8694 12.4654C29.672 13.2667 30.016 14.2787 30.1787 15.4787C30.3334 16.6334 30.3334 18.104 30.3334 19.9267V21.4067C30.3334 23.2307 30.3334 24.7 30.1787 25.856C30.016 27.056 29.672 28.0667 28.8694 28.8694C28.0667 29.672 27.056 30.016 25.856 30.1787C24.7 30.3334 23.2294 30.3334 21.4067 30.3334H10.5934C8.77069 30.3334 7.30002 30.3334 6.14402 30.1787C4.94402 30.0174 3.93335 29.672 3.13069 28.8694C2.32802 28.0667 1.98402 27.056 1.82269 25.856C1.66669 24.7 1.66669 23.2294 1.66669 21.4067V19.9267C1.66669 18.104 1.66669 16.6334 1.82269 15.4774C1.98269 14.2774 2.32935 13.2667 3.13069 12.464C3.83069 11.7654 4.69069 11.4107 5.70135 11.2254C6.68402 11.0454 7.88535 11.0107 9.32802 11.0027Z" fill="#2699FB"/>
</svg>
