<svg width="32" height="32" viewBox="0 0 32 32" fill="none" xmlns="http://www.w3.org/2000/svg">
<path d="M6 23.8644H8V26.0339H4V4.33898H2V28.2034H8V30.3729H0V2.16949H4V0H10C10.9167 0 11.7969 0.152542 12.6406 0.457627C13.4844 0.762712 14.2708 1.22034 15 1.83051C15.7188 1.22034 16.5 0.762712 17.3438 0.457627C18.1875 0.152542 19.0729 0 20 0H26V2.16949H30V16.0508L28 15.0678V4.33898H26V14.0847L24 13.0847V2.16949H20C19.2604 2.16949 18.5521 2.30508 17.875 2.57627C17.1979 2.84746 16.5729 3.24859 16 3.77966V14.0847L14 15.0678V3.77966C13.4375 3.25989 12.8177 2.86441 12.1406 2.59322C11.4635 2.32203 10.75 2.18079 10 2.16949H6V23.8644ZM28 28.1864L21 32L14 28.1864C14 27.7797 14.0052 27.3503 14.0156 26.8983C14.026 26.4463 14.0677 25.9887 14.1406 25.5254C14.2135 25.0621 14.3177 24.6271 14.4531 24.2203C14.5885 23.8136 14.776 23.435 15.0156 23.0847L12 21.5932V31.4576H10V20.6102L21 15.1864L32 20.6102L26.9844 23.0847L27.1094 23.2712C27.3281 23.6215 27.4948 24 27.6094 24.4068C27.724 24.8136 27.8125 25.226 27.875 25.6441C27.9375 26.0621 27.974 26.4915 27.9844 26.9322C27.9948 27.3729 28 27.791 28 28.1864ZM21 17.5593L14.8281 20.6102L21 23.661L27.1719 20.6102L21 17.5593ZM21 29.5763L26 26.8475C25.9896 26.5537 25.9688 26.2881 25.9375 26.0508C25.9062 25.8136 25.849 25.5819 25.7656 25.3559C25.6823 25.1299 25.599 24.9096 25.5156 24.6949C25.4323 24.4802 25.3125 24.2429 25.1562 23.9831L21 26.0339L16.8438 23.9831C16.6875 24.2542 16.5625 24.4972 16.4688 24.7119C16.375 24.9266 16.2917 25.1412 16.2188 25.3559C16.1458 25.5706 16.099 25.7966 16.0781 26.0339C16.0573 26.2712 16.0365 26.548 16.0156 26.8644L21 29.5763Z" fill="black"/>
</svg>
