<svg width="32" height="54" viewBox="0 0 32 54" fill="none" xmlns="http://www.w3.org/2000/svg">
<path d="M6 23.8644H8V26.0339H4V4.33898H2V28.2034H8V30.3729H0V2.16949H4V0H10C10.9167 0 11.7969 0.152542 12.6406 0.457627C13.4844 0.762712 14.2708 1.22034 15 1.83051C15.7188 1.22034 16.5 0.762712 17.3438 0.457627C18.1875 0.152542 19.0729 0 20 0H26V2.16949H30V16.0508L28 15.0678V4.33898H26V14.0847L24 13.0847V2.16949H20C19.2604 2.16949 18.5521 2.30508 17.875 2.57627C17.1979 2.84746 16.5729 3.24859 16 3.77966V14.0847L14 15.0678V3.77966C13.4375 3.25989 12.8177 2.86441 12.1406 2.59322C11.4635 2.32203 10.75 2.18079 10 2.16949H6V23.8644ZM28 28.1864L21 32L14 28.1864C14 27.7797 14.0052 27.3503 14.0156 26.8983C14.026 26.4463 14.0677 25.9887 14.1406 25.5254C14.2135 25.0621 14.3177 24.6271 14.4531 24.2203C14.5885 23.8136 14.776 23.435 15.0156 23.0847L12 21.5932V31.4576H10V20.6102L21 15.1864L32 20.6102L26.9844 23.0847L27.1094 23.2712C27.3281 23.6215 27.4948 24 27.6094 24.4068C27.724 24.8136 27.8125 25.226 27.875 25.6441C27.9375 26.0621 27.974 26.4915 27.9844 26.9322C27.9948 27.3729 28 27.791 28 28.1864ZM21 17.5593L14.8281 20.6102L21 23.661L27.1719 20.6102L21 17.5593ZM21 29.5763L26 26.8475C25.9896 26.5537 25.9688 26.2881 25.9375 26.0508C25.9062 25.8136 25.849 25.5819 25.7656 25.3559C25.6823 25.1299 25.599 24.9096 25.5156 24.6949C25.4323 24.4802 25.3125 24.2429 25.1562 23.9831L21 26.0339L16.8438 23.9831C16.6875 24.2542 16.5625 24.4972 16.4688 24.7119C16.375 24.9266 16.2917 25.1412 16.2188 25.3559C16.1458 25.5706 16.099 25.7966 16.0781 26.0339C16.0573 26.2712 16.0365 26.548 16.0156 26.8644L21 29.5763Z" fill="black"/>
<path d="M6.16406 50.0801V51H1.89844V50.0801H6.16406ZM2.12109 42.4688V51H0.990234V42.4688H2.12109ZM9.92578 51.1172C9.48438 51.1172 9.08398 51.043 8.72461 50.8945C8.36914 50.7422 8.0625 50.5293 7.80469 50.2559C7.55078 49.9824 7.35547 49.6582 7.21875 49.2832C7.08203 48.9082 7.01367 48.498 7.01367 48.0527V47.8066C7.01367 47.291 7.08984 46.832 7.24219 46.4297C7.39453 46.0234 7.60156 45.6797 7.86328 45.3984C8.125 45.1172 8.42188 44.9043 8.75391 44.7598C9.08594 44.6152 9.42969 44.543 9.78516 44.543C10.2383 44.543 10.6289 44.6211 10.957 44.7773C11.2891 44.9336 11.5605 45.1523 11.7715 45.4336C11.9824 45.7109 12.1387 46.0391 12.2402 46.418C12.3418 46.793 12.3926 47.2031 12.3926 47.6484V48.1348H7.6582V47.25H11.3086V47.168C11.293 46.8867 11.2344 46.6133 11.1328 46.3477C11.0352 46.082 10.8789 45.8633 10.6641 45.6914C10.4492 45.5195 10.1562 45.4336 9.78516 45.4336C9.53906 45.4336 9.3125 45.4863 9.10547 45.5918C8.89844 45.6934 8.7207 45.8457 8.57227 46.0488C8.42383 46.252 8.30859 46.5 8.22656 46.793C8.14453 47.0859 8.10352 47.4238 8.10352 47.8066V48.0527C8.10352 48.3535 8.14453 48.6367 8.22656 48.9023C8.3125 49.1641 8.43555 49.3945 8.5957 49.5938C8.75977 49.793 8.95703 49.9492 9.1875 50.0625C9.42188 50.1758 9.6875 50.2324 9.98438 50.2324C10.3672 50.2324 10.6914 50.1543 10.957 49.998C11.2227 49.8418 11.4551 49.6328 11.6543 49.3711L12.3105 49.8926C12.1738 50.0996 12 50.2969 11.7891 50.4844C11.5781 50.6719 11.3184 50.8242 11.0098 50.9414C10.7051 51.0586 10.3438 51.1172 9.92578 51.1172ZM17.3965 49.916V46.6523C17.3965 46.4023 17.3457 46.1855 17.2441 46.002C17.1465 45.8145 16.998 45.6699 16.7988 45.5684C16.5996 45.4668 16.3535 45.416 16.0605 45.416C15.7871 45.416 15.5469 45.4629 15.3398 45.5566C15.1367 45.6504 14.9766 45.7734 14.8594 45.9258C14.7461 46.0781 14.6895 46.2422 14.6895 46.418H13.6055C13.6055 46.1914 13.6641 45.9668 13.7812 45.7441C13.8984 45.5215 14.0664 45.3203 14.2852 45.1406C14.5078 44.957 14.7734 44.8125 15.082 44.707C15.3945 44.5977 15.7422 44.543 16.125 44.543C16.5859 44.543 16.9922 44.6211 17.3438 44.7773C17.6992 44.9336 17.9766 45.1699 18.1758 45.4863C18.3789 45.7988 18.4805 46.1914 18.4805 46.6641V49.6172C18.4805 49.8281 18.498 50.0527 18.5332 50.291C18.5723 50.5293 18.6289 50.7344 18.7031 50.9062V51H17.5723C17.5176 50.875 17.4746 50.709 17.4434 50.502C17.4121 50.291 17.3965 50.0957 17.3965 49.916ZM17.584 47.1562L17.5957 47.918H16.5C16.1914 47.918 15.916 47.9434 15.6738 47.9941C15.4316 48.041 15.2285 48.1133 15.0645 48.2109C14.9004 48.3086 14.7754 48.4316 14.6895 48.5801C14.6035 48.7246 14.5605 48.8945 14.5605 49.0898C14.5605 49.2891 14.6055 49.4707 14.6953 49.6348C14.7852 49.7988 14.9199 49.9297 15.0996 50.0273C15.2832 50.1211 15.5078 50.168 15.7734 50.168C16.1055 50.168 16.3984 50.0977 16.6523 49.957C16.9062 49.8164 17.1074 49.6445 17.2559 49.4414C17.4082 49.2383 17.4902 49.041 17.502 48.8496L17.9648 49.3711C17.9375 49.5352 17.8633 49.7168 17.7422 49.916C17.6211 50.1152 17.459 50.3066 17.2559 50.4902C17.0566 50.6699 16.8184 50.8203 16.541 50.9414C16.2676 51.0586 15.959 51.1172 15.6152 51.1172C15.1855 51.1172 14.8086 51.0332 14.4844 50.8652C14.1641 50.6973 13.9141 50.4727 13.7344 50.1914C13.5586 49.9062 13.4707 49.5879 13.4707 49.2363C13.4707 48.8965 13.5371 48.5977 13.6699 48.3398C13.8027 48.0781 13.9941 47.8613 14.2441 47.6895C14.4941 47.5137 14.7949 47.3809 15.1465 47.291C15.498 47.2012 15.8906 47.1562 16.3242 47.1562H17.584ZM21.2695 45.6562V51H20.1855V44.6602H21.2402L21.2695 45.6562ZM23.25 44.625L23.2441 45.6328C23.1543 45.6133 23.0684 45.6016 22.9863 45.5977C22.9082 45.5898 22.8184 45.5859 22.7168 45.5859C22.4668 45.5859 22.2461 45.625 22.0547 45.7031C21.8633 45.7812 21.7012 45.8906 21.5684 46.0312C21.4355 46.1719 21.3301 46.3398 21.252 46.5352C21.1777 46.7266 21.1289 46.9375 21.1055 47.168L20.8008 47.3438C20.8008 46.9609 20.8379 46.6016 20.9121 46.2656C20.9902 45.9297 21.1094 45.6328 21.2695 45.375C21.4297 45.1133 21.6328 44.9102 21.8789 44.7656C22.1289 44.6172 22.4258 44.543 22.7695 44.543C22.8477 44.543 22.9375 44.5527 23.0391 44.5723C23.1406 44.5879 23.2109 44.6055 23.25 44.625ZM25.3359 46.0137V51H24.252V44.6602H25.2773L25.3359 46.0137ZM25.0781 47.5898L24.627 47.5723C24.6309 47.1387 24.6953 46.7383 24.8203 46.3711C24.9453 46 25.1211 45.6777 25.3477 45.4043C25.5742 45.1309 25.8438 44.9199 26.1562 44.7715C26.4727 44.6191 26.8223 44.543 27.2051 44.543C27.5176 44.543 27.7988 44.5859 28.0488 44.6719C28.2988 44.7539 28.5117 44.8867 28.6875 45.0703C28.8672 45.2539 29.0039 45.4922 29.0977 45.7852C29.1914 46.0742 29.2383 46.4277 29.2383 46.8457V51H28.1484V46.834C28.1484 46.502 28.0996 46.2363 28.002 46.0371C27.9043 45.834 27.7617 45.6875 27.5742 45.5977C27.3867 45.5039 27.1562 45.457 26.8828 45.457C26.6133 45.457 26.3672 45.5137 26.1445 45.627C25.9258 45.7402 25.7363 45.8965 25.5762 46.0957C25.4199 46.2949 25.2969 46.5234 25.207 46.7812C25.1211 47.0352 25.0781 47.3047 25.0781 47.5898Z" fill="black"/>
</svg>
