<svg width="32" height="32" viewBox="0 0 32 32" fill="none" xmlns="http://www.w3.org/2000/svg">
<path d="M23 2L24.593 5L28 5.414L25.5 7.667L26 11L23 9.125L20 11L20.5 7.667L18 5.414L21.5 5L23 2Z" fill="black"/>
<path d="M22.717 13.2491L20.779 12.7511C20.4316 14.0893 19.6953 15.2945 18.6633 16.2145C17.6312 17.1346 16.3496 17.728 14.9804 17.92C13.6112 18.112 12.2158 17.8938 10.9706 17.2931C9.72529 16.6924 8.686 15.7361 7.98398 14.545C7.28197 13.3538 6.94873 11.9814 7.02637 10.601C7.10401 9.22057 7.58904 7.89414 8.42019 6.78927C9.25134 5.68439 10.3913 4.85064 11.6961 4.39336C13.0009 3.93607 14.4119 3.87576 15.751 4.22005L16.25 2.28305C14.2979 1.77531 12.2319 1.93873 10.384 2.74706C8.53606 3.5554 7.01365 4.96166 6.06153 6.73976C5.10941 8.51787 4.78289 10.5645 5.13447 12.5506C5.48605 14.5367 6.4953 16.3469 7.99996 17.6901V30.0001L14 26.0001L20 30.0001V17.7081C21.3281 16.5243 22.2739 14.9721 22.717 13.2491ZM18 26.2631L14 23.5961L9.99996 26.2631V19.0501C11.241 19.6735 12.6104 19.9987 13.9993 19.9997C15.3881 20.0008 16.758 19.6776 18 19.0561V26.2631Z" fill="black"/>
</svg>
