<svg width="32" height="32" viewBox="0 0 32 32" fill="none" xmlns="http://www.w3.org/2000/svg">
<path d="M28 16C28.004 18.3824 27.2954 20.7115 25.9653 22.688C24.8685 24.324 23.3854 25.6644 21.6473 26.5909C19.9092 27.5174 17.9696 28.0014 16 28C14.0304 28.0014 12.0908 27.5174 10.3527 26.5909C8.61457 25.6644 7.13153 24.324 6.03467 22.688C4.99031 21.1312 4.3252 19.3514 4.09267 17.4913C3.86015 15.6311 4.06666 13.7424 4.69566 11.9764C5.32467 10.2104 6.35866 8.61642 7.71476 7.3221C9.07085 6.02778 10.7113 5.06918 12.5047 4.52314C14.298 3.97711 16.1944 3.85882 18.0417 4.17777C19.889 4.49671 21.6358 5.24402 23.1423 6.35978C24.6487 7.47555 25.8728 8.92873 26.7164 10.6028C27.5599 12.2769 27.9996 14.1254 28 16Z" stroke="black"/>
<path d="M18 12C18 12.5305 17.7893 13.0392 17.4142 13.4142C17.0391 13.7893 16.5304 14 16 14V15.3334C16.4377 15.3334 16.8712 15.2471 17.2756 15.0796C17.68 14.9121 18.0475 14.6666 18.357 14.357C18.6665 14.0475 18.9121 13.6801 19.0796 13.2756C19.2471 12.8712 19.3333 12.4378 19.3333 12H18ZM16 14C15.4696 14 14.9608 13.7893 14.5858 13.4142C14.2107 13.0392 14 12.5305 14 12H12.6667C12.6667 12.4378 12.7529 12.8712 12.9204 13.2756C13.0879 13.6801 13.3334 14.0475 13.643 14.357C14.2681 14.9822 15.1159 15.3334 16 15.3334V14ZM14 12C14 11.4696 14.2107 10.9609 14.5858 10.5858C14.9608 10.2107 15.4696 10 16 10V8.66669C15.1159 8.66669 14.2681 9.01788 13.643 9.643C13.0178 10.2681 12.6667 11.116 12.6667 12H14ZM16 10C16.5304 10 17.0391 10.2107 17.4142 10.5858C17.7893 10.9609 18 11.4696 18 12H19.3333C19.3333 11.116 18.9821 10.2681 18.357 9.643C17.7319 9.01788 16.884 8.66669 16 8.66669V10ZM6.88799 23.808L6.24799 23.6187L6.14532 23.9667L6.38132 24.2427L6.88799 23.808ZM25.112 23.808L25.6187 24.2427L25.8547 23.9667L25.7507 23.6187L25.112 23.808ZM12 20.6667H20V19.3334H12V20.6667ZM12 19.3334C10.7079 19.3336 9.45038 19.7507 8.41432 20.5228C7.37827 21.2949 6.61765 22.3806 6.24799 23.6187L7.52666 23.9987C7.81447 23.0359 8.40521 22.1916 9.21112 21.5913C10.017 20.991 10.9951 20.6668 12 20.6667V19.3334ZM16 27.3334C14.3643 27.3351 12.7478 26.9819 11.2619 26.2983C9.77599 25.6146 8.45611 24.6167 7.39332 23.3734L6.38132 24.2427C7.56939 25.6317 9.04457 26.7465 10.7051 27.5103C12.3657 28.274 14.1722 28.6686 16 28.6667V27.3334ZM20 20.6667C21.0051 20.6669 21.9833 20.9913 22.7892 21.5919C23.5951 22.1924 24.1857 23.037 24.4733 24L25.7507 23.6187C25.381 22.3806 24.6217 21.2949 23.5857 20.5228C22.5496 19.7507 21.2921 19.3336 20 19.3334V20.6667ZM24.6067 23.3734C23.5439 24.6167 22.224 25.6146 20.7381 26.2983C19.2522 26.9819 17.6356 27.3351 16 27.3334V28.6667C17.8278 28.6686 19.6343 28.274 21.2948 27.5103C22.9554 26.7465 24.4306 25.6317 25.6187 24.2427L24.6053 23.3747L24.6067 23.3734Z" fill="black"/>
</svg>
