<svg width="59" height="14" viewBox="0 0 59 14" fill="none" xmlns="http://www.w3.org/2000/svg">
<path d="M33.5371 8.84375C33.5371 8.64453 33.5059 8.46875 33.4434 8.31641C33.3848 8.16016 33.2793 8.01953 33.127 7.89453C32.9785 7.76953 32.7715 7.65039 32.5059 7.53711C32.2441 7.42383 31.9121 7.30859 31.5098 7.19141C31.0879 7.06641 30.707 6.92773 30.3672 6.77539C30.0273 6.61914 29.7363 6.44141 29.4941 6.24219C29.252 6.04297 29.0664 5.81445 28.9375 5.55664C28.8086 5.29883 28.7441 5.00391 28.7441 4.67188C28.7441 4.33984 28.8125 4.0332 28.9492 3.75195C29.0859 3.4707 29.2812 3.22656 29.5352 3.01953C29.793 2.80859 30.0996 2.64453 30.4551 2.52734C30.8105 2.41016 31.207 2.35156 31.6445 2.35156C32.2852 2.35156 32.8281 2.47461 33.2734 2.7207C33.7227 2.96289 34.0645 3.28125 34.2988 3.67578C34.5332 4.06641 34.6504 4.48438 34.6504 4.92969H33.5254C33.5254 4.60938 33.457 4.32617 33.3203 4.08008C33.1836 3.83008 32.9766 3.63477 32.6992 3.49414C32.4219 3.34961 32.0703 3.27734 31.6445 3.27734C31.2422 3.27734 30.9102 3.33789 30.6484 3.45898C30.3867 3.58008 30.1914 3.74414 30.0625 3.95117C29.9375 4.1582 29.875 4.39453 29.875 4.66016C29.875 4.83984 29.9121 5.00391 29.9863 5.15234C30.0645 5.29688 30.1836 5.43164 30.3438 5.55664C30.5078 5.68164 30.7148 5.79688 30.9648 5.90234C31.2188 6.00781 31.5215 6.10938 31.873 6.20703C32.3574 6.34375 32.7754 6.49609 33.127 6.66406C33.4785 6.83203 33.7676 7.02148 33.9941 7.23242C34.2246 7.43945 34.3945 7.67578 34.5039 7.94141C34.6172 8.20312 34.6738 8.5 34.6738 8.83203C34.6738 9.17969 34.6035 9.49414 34.4629 9.77539C34.3223 10.0566 34.1211 10.2969 33.8594 10.4961C33.5977 10.6953 33.2832 10.8496 32.916 10.959C32.5527 11.0645 32.1465 11.1172 31.6973 11.1172C31.3027 11.1172 30.9141 11.0625 30.5312 10.9531C30.1523 10.8438 29.8066 10.6797 29.4941 10.4609C29.1855 10.2422 28.9375 9.97266 28.75 9.65234C28.5664 9.32812 28.4746 8.95312 28.4746 8.52734H29.5996C29.5996 8.82031 29.6562 9.07227 29.7695 9.2832C29.8828 9.49023 30.0371 9.66211 30.2324 9.79883C30.4316 9.93555 30.6562 10.0371 30.9062 10.1035C31.1602 10.166 31.4238 10.1973 31.6973 10.1973C32.0918 10.1973 32.4258 10.1426 32.6992 10.0332C32.9727 9.92383 33.1797 9.76758 33.3203 9.56445C33.4648 9.36133 33.5371 9.12109 33.5371 8.84375ZM37.0352 2V11H35.9512V2H37.0352ZM36.7773 7.58984L36.3262 7.57227C36.3301 7.13867 36.3945 6.73828 36.5195 6.37109C36.6445 6 36.8203 5.67773 37.0469 5.4043C37.2734 5.13086 37.543 4.91992 37.8555 4.77148C38.1719 4.61914 38.5215 4.54297 38.9043 4.54297C39.2168 4.54297 39.498 4.58594 39.748 4.67188C39.998 4.75391 40.2109 4.88672 40.3867 5.07031C40.5664 5.25391 40.7031 5.49219 40.7969 5.78516C40.8906 6.07422 40.9375 6.42773 40.9375 6.8457V11H39.8477V6.83398C39.8477 6.50195 39.7988 6.23633 39.7012 6.03711C39.6035 5.83398 39.4609 5.6875 39.2734 5.59766C39.0859 5.50391 38.8555 5.45703 38.582 5.45703C38.3125 5.45703 38.0664 5.51367 37.8438 5.62695C37.625 5.74023 37.4355 5.89648 37.2754 6.0957C37.1191 6.29492 36.9961 6.52344 36.9062 6.78125C36.8203 7.03516 36.7773 7.30469 36.7773 7.58984ZM46.2988 9.91602V6.65234C46.2988 6.40234 46.248 6.18555 46.1465 6.00195C46.0488 5.81445 45.9004 5.66992 45.7012 5.56836C45.502 5.4668 45.2559 5.41602 44.9629 5.41602C44.6895 5.41602 44.4492 5.46289 44.2422 5.55664C44.0391 5.65039 43.8789 5.77344 43.7617 5.92578C43.6484 6.07812 43.5918 6.24219 43.5918 6.41797H42.5078C42.5078 6.19141 42.5664 5.9668 42.6836 5.74414C42.8008 5.52148 42.9688 5.32031 43.1875 5.14062C43.4102 4.95703 43.6758 4.8125 43.9844 4.70703C44.2969 4.59766 44.6445 4.54297 45.0273 4.54297C45.4883 4.54297 45.8945 4.62109 46.2461 4.77734C46.6016 4.93359 46.8789 5.16992 47.0781 5.48633C47.2812 5.79883 47.3828 6.19141 47.3828 6.66406V9.61719C47.3828 9.82812 47.4004 10.0527 47.4355 10.291C47.4746 10.5293 47.5312 10.7344 47.6055 10.9062V11H46.4746C46.4199 10.875 46.377 10.709 46.3457 10.502C46.3145 10.291 46.2988 10.0957 46.2988 9.91602ZM46.4863 7.15625L46.498 7.91797H45.4023C45.0938 7.91797 44.8184 7.94336 44.5762 7.99414C44.334 8.04102 44.1309 8.11328 43.9668 8.21094C43.8027 8.30859 43.6777 8.43164 43.5918 8.58008C43.5059 8.72461 43.4629 8.89453 43.4629 9.08984C43.4629 9.28906 43.5078 9.4707 43.5977 9.63477C43.6875 9.79883 43.8223 9.92969 44.002 10.0273C44.1855 10.1211 44.4102 10.168 44.6758 10.168C45.0078 10.168 45.3008 10.0977 45.5547 9.95703C45.8086 9.81641 46.0098 9.64453 46.1582 9.44141C46.3105 9.23828 46.3926 9.04102 46.4043 8.84961L46.8672 9.37109C46.8398 9.53516 46.7656 9.7168 46.6445 9.91602C46.5234 10.1152 46.3613 10.3066 46.1582 10.4902C45.959 10.6699 45.7207 10.8203 45.4434 10.9414C45.1699 11.0586 44.8613 11.1172 44.5176 11.1172C44.0879 11.1172 43.7109 11.0332 43.3867 10.8652C43.0664 10.6973 42.8164 10.4727 42.6367 10.1914C42.4609 9.90625 42.373 9.58789 42.373 9.23633C42.373 8.89648 42.4395 8.59766 42.5723 8.33984C42.7051 8.07812 42.8965 7.86133 43.1465 7.68945C43.3965 7.51367 43.6973 7.38086 44.0488 7.29102C44.4004 7.20117 44.793 7.15625 45.2266 7.15625H46.4863ZM50.1719 5.65625V11H49.0879V4.66016H50.1426L50.1719 5.65625ZM52.1523 4.625L52.1465 5.63281C52.0566 5.61328 51.9707 5.60156 51.8887 5.59766C51.8105 5.58984 51.7207 5.58594 51.6191 5.58594C51.3691 5.58594 51.1484 5.625 50.957 5.70312C50.7656 5.78125 50.6035 5.89062 50.4707 6.03125C50.3379 6.17188 50.2324 6.33984 50.1543 6.53516C50.0801 6.72656 50.0312 6.9375 50.0078 7.16797L49.7031 7.34375C49.7031 6.96094 49.7402 6.60156 49.8145 6.26562C49.8926 5.92969 50.0117 5.63281 50.1719 5.375C50.332 5.11328 50.5352 4.91016 50.7812 4.76562C51.0312 4.61719 51.3281 4.54297 51.6719 4.54297C51.75 4.54297 51.8398 4.55273 51.9414 4.57227C52.043 4.58789 52.1133 4.60547 52.1523 4.625ZM55.668 11.1172C55.2266 11.1172 54.8262 11.043 54.4668 10.8945C54.1113 10.7422 53.8047 10.5293 53.5469 10.2559C53.293 9.98242 53.0977 9.6582 52.9609 9.2832C52.8242 8.9082 52.7559 8.49805 52.7559 8.05273V7.80664C52.7559 7.29102 52.832 6.83203 52.9844 6.42969C53.1367 6.02344 53.3438 5.67969 53.6055 5.39844C53.8672 5.11719 54.1641 4.9043 54.4961 4.75977C54.8281 4.61523 55.1719 4.54297 55.5273 4.54297C55.9805 4.54297 56.3711 4.62109 56.6992 4.77734C57.0312 4.93359 57.3027 5.15234 57.5137 5.43359C57.7246 5.71094 57.8809 6.03906 57.9824 6.41797C58.084 6.79297 58.1348 7.20312 58.1348 7.64844V8.13477H53.4004V7.25H57.0508V7.16797C57.0352 6.88672 56.9766 6.61328 56.875 6.34766C56.7773 6.08203 56.6211 5.86328 56.4062 5.69141C56.1914 5.51953 55.8984 5.43359 55.5273 5.43359C55.2812 5.43359 55.0547 5.48633 54.8477 5.5918C54.6406 5.69336 54.4629 5.8457 54.3145 6.04883C54.166 6.25195 54.0508 6.5 53.9688 6.79297C53.8867 7.08594 53.8457 7.42383 53.8457 7.80664V8.05273C53.8457 8.35352 53.8867 8.63672 53.9688 8.90234C54.0547 9.16406 54.1777 9.39453 54.3379 9.59375C54.502 9.79297 54.6992 9.94922 54.9297 10.0625C55.1641 10.1758 55.4297 10.2324 55.7266 10.2324C56.1094 10.2324 56.4336 10.1543 56.6992 9.99805C56.9648 9.8418 57.1973 9.63281 57.3965 9.37109L58.0527 9.89258C57.916 10.0996 57.7422 10.2969 57.5312 10.4844C57.3203 10.6719 57.0605 10.8242 56.752 10.9414C56.4473 11.0586 56.0859 11.1172 55.668 11.1172Z" fill="white"/>
<path d="M12.4048 5.99852L9.77977 8.62352C9.73872 8.66456 9.68305 8.68762 9.625 8.68762C9.56695 8.68762 9.51128 8.66456 9.47023 8.62352C9.42919 8.58247 9.40613 8.5268 9.40613 8.46875C9.40613 8.4107 9.42919 8.35503 9.47023 8.31398L11.7217 6.0625H9.02344C7.90774 6.06212 6.82356 6.4326 5.9414 7.11567C5.05925 7.79875 4.42916 8.75566 4.15023 9.83594C4.13807 9.88305 4.11055 9.92476 4.07202 9.95447C4.03349 9.98419 3.98616 10.0002 3.9375 10C3.91904 10 3.90065 9.99763 3.88281 9.99289C3.8267 9.97835 3.77866 9.94213 3.74923 9.8922C3.71981 9.84226 3.7114 9.78269 3.72586 9.72656C4.02847 8.55192 4.71328 7.51134 5.6724 6.76876C6.63152 6.02617 7.81045 5.62379 9.02344 5.625H11.7228L9.47023 3.37352C9.42919 3.33247 9.40613 3.2768 9.40613 3.21875C9.40613 3.1607 9.42919 3.10503 9.47023 3.06398C9.51128 3.02294 9.56695 2.99988 9.625 2.99988C9.68305 2.99988 9.73872 3.02294 9.77977 3.06398L12.4048 5.68898C12.4251 5.7093 12.4412 5.73343 12.4522 5.75998C12.4633 5.78654 12.4689 5.815 12.4689 5.84375C12.4689 5.8725 12.4633 5.90096 12.4522 5.92752C12.4412 5.95407 12.4251 5.9782 12.4048 5.99852ZM10.5 11.75H2.1875C2.12948 11.75 2.07384 11.727 2.03282 11.6859C1.9918 11.6449 1.96875 11.5893 1.96875 11.5312V4.96875C1.96875 4.91073 1.9457 4.85509 1.90468 4.81407C1.86366 4.77305 1.80802 4.75 1.75 4.75C1.69198 4.75 1.63634 4.77305 1.59532 4.81407C1.5543 4.85509 1.53125 4.91073 1.53125 4.96875V11.5312C1.53125 11.7053 1.60039 11.8722 1.72346 11.9953C1.84653 12.1184 2.01345 12.1875 2.1875 12.1875H10.5C10.558 12.1875 10.6137 12.1645 10.6547 12.1234C10.6957 12.0824 10.7188 12.0268 10.7188 11.9688C10.7188 11.9107 10.6957 11.8551 10.6547 11.8141C10.6137 11.773 10.558 11.75 10.5 11.75Z" fill="white"/>
</svg>
