<svg width="12" height="10" viewBox="0 0 12 10" fill="none" xmlns="http://www.w3.org/2000/svg">
<path d="M11.4048 2.99852L8.77977 5.62352C8.73872 5.66456 8.68305 5.68762 8.625 5.68762C8.56695 5.68762 8.51128 5.66456 8.47023 5.62352C8.42919 5.58247 8.40613 5.5268 8.40613 5.46875C8.40613 5.4107 8.42919 5.35503 8.47023 5.31398L10.7217 3.0625H8.02344C6.90774 3.06212 5.82356 3.4326 4.9414 4.11567C4.05925 4.79875 3.42916 5.75566 3.15023 6.83594C3.13807 6.88305 3.11055 6.92476 3.07202 6.95447C3.03349 6.98419 2.98616 7.00021 2.9375 7C2.91904 7.00003 2.90065 6.99763 2.88281 6.99289C2.8267 6.97835 2.77866 6.94213 2.74923 6.8922C2.71981 6.84226 2.7114 6.78269 2.72586 6.72656C3.02847 5.55192 3.71328 4.51134 4.6724 3.76876C5.63152 3.02617 6.81045 2.62379 8.02344 2.625H10.7228L8.47023 0.373515C8.42919 0.332469 8.40613 0.276798 8.40613 0.21875C8.40613 0.160701 8.42919 0.10503 8.47023 0.063984C8.51128 0.0229376 8.56695 -0.000122069 8.625 -0.00012207C8.68305 -0.000122071 8.73872 0.0229374 8.77977 0.0639838L11.4048 2.68898C11.4251 2.7093 11.4412 2.73343 11.4522 2.75998C11.4633 2.78654 11.4689 2.815 11.4689 2.84375C11.4689 2.8725 11.4633 2.90096 11.4522 2.92752C11.4412 2.95407 11.4251 2.9782 11.4048 2.99852ZM9.5 8.75H1.1875C1.12948 8.75 1.07384 8.72695 1.03282 8.68593C0.991797 8.64491 0.96875 8.58927 0.96875 8.53125V1.96875C0.96875 1.91073 0.945703 1.85509 0.90468 1.81407C0.863656 1.77305 0.808016 1.75 0.75 1.75C0.691984 1.75 0.636344 1.77305 0.59532 1.81407C0.554297 1.85509 0.53125 1.91073 0.53125 1.96875V8.53125C0.53125 8.7053 0.60039 8.87222 0.723461 8.99529C0.846532 9.11836 1.01345 9.1875 1.1875 9.1875H9.5C9.55802 9.1875 9.61366 9.16445 9.65468 9.12343C9.6957 9.08241 9.71875 9.02677 9.71875 8.96875C9.71875 8.91073 9.6957 8.85509 9.65468 8.81407C9.61366 8.77305 9.55802 8.75 9.5 8.75Z" fill="white"/>
</svg>
